<?xml version="1.0" encoding="utf-8"?>
<!-- Generator: Adobe Illustrator 25.2.0, SVG Export Plug-In . SVG Version: 6.00 Build 0)  -->
<svg version="1.1" id="Layer_1" xmlns="http://www.w3.org/2000/svg" xmlns:xlink="http://www.w3.org/1999/xlink" x="0px" y="0px"
	 viewBox="0 0 27.4 31.8" style="enable-background:new 0 0 27.4 31.8;" xml:space="preserve">
<style type="text/css">
	.st0{fill:#E94B61;}
</style>
<path class="st0" d="M26.7,18.8L23.3,16l3.4-2.7l0.1-0.1c0.4-0.4,0.6-0.9,0.6-1.5s-0.2-1.1-0.7-1.5L15.1,0.6C14.7,0.2,14.2,0,13.7,0
	s-1,0.2-1.4,0.5L0.7,10.2l-0.1,0.1c-0.8,0.8-0.8,2.1,0,3L4.1,16l-3.4,2.8l-0.1,0.1c-0.8,0.8-0.8,2.1,0,3l11.7,9.3
	c0.4,0.4,0.9,0.6,1.4,0.6s1-0.2,1.4-0.5l7.7-6.1l3.9-3.1l0.1-0.1c0.4-0.4,0.6-0.9,0.6-1.5C27.3,19.8,27.1,19.2,26.7,18.8z
	 M13.7,29.3L2.4,20.4l3.5-2.9l6.3,5c0.4,0.4,0.9,0.6,1.4,0.6s1-0.2,1.4-0.5l4.4-3.5l-1.9-1.5l-4,3.2L7.8,16l0,0l-1.9-1.5l0,0
	l-3.5-2.8l11.3-9.3l11.2,9.2l-3.5,2.8l-6.3-5.2c-0.4-0.4-0.9-0.6-1.4-0.6s-1,0.2-1.4,0.5l-4.5,3.7l1.9,1.5l4-3.3l11.2,9.3L13.7,29.3
	z"/>
</svg>
